<svg width="101" height="41" viewBox="0 0 101 41" fill="none" xmlns="http://www.w3.org/2000/svg">
    <path
        d="M10.544 3.776C7.504 3.776 5.216 4.608 3.68 6.272C2.176 7.936 1.424 10.608 1.424 14.288H0.32C0.32 6.608 3.632 2.768 10.256 2.768C12.4 2.768 15.424 3.584 19.328 5.216C23.232 6.848 26.208 7.664 28.256 7.664V8.768C27.424 8.768 26.48 8.656 25.424 8.432C25.2 8.496 24.8 8.864 24.224 9.536C23.68 10.176 23.168 10.912 22.688 11.744C21.344 14.176 20.16 17.28 19.136 21.056H24.32L24.224 21.92H18.896C18.672 22.656 18.416 23.664 18.128 24.944C16.816 30.672 15.424 34.752 13.952 37.184C12.512 39.648 10.384 40.88 7.568 40.88C5.872 40.88 4.704 40.688 4.064 40.304L4.544 39.296C4.992 39.744 6.096 39.968 7.856 39.968C8.08 39.968 8.448 39.936 8.96 39.872L12.368 25.088C12.464 24.672 12.608 24.08 12.8 23.312C12.992 22.544 13.104 22.08 13.136 21.92H7.904L8 21.056H13.328C14.576 16.352 15.808 12.928 17.024 10.784C18.272 8.608 19.728 7.408 21.392 7.184C21.008 7.024 20.144 6.656 18.8 6.08C17.488 5.504 16.544 5.104 15.968 4.88C14.016 4.144 12.208 3.776 10.544 3.776ZM36.9118 32.432C34.8958 32.432 33.4238 31.76 32.4958 30.416L28.4638 33.296H27.5518L32.9278 1.856C31.9678 1.952 31.1678 2.4 30.5278 3.2L29.8078 2.624C30.7678 1.472 31.9678 0.896 33.4078 0.896C34.8798 0.896 36.0158 1.264 36.8158 2C37.6158 2.736 38.0157 3.776 38.0157 5.12C38.0157 5.376 37.9838 5.792 37.9198 6.368C37.4078 9.216 36.7838 12.64 36.0478 16.64C37.3918 14.464 39.1358 13.376 41.2798 13.376C43.4238 13.376 45.0718 14 46.2238 15.248C47.3758 16.464 47.9518 18.144 47.9518 20.288C47.9518 24.064 46.9278 27.04 44.8798 29.216C42.8318 31.36 40.1758 32.432 36.9118 32.432ZM36.5758 31.136C38.3358 31.136 39.7598 29.92 40.8478 27.488C41.9678 25.024 42.5278 21.968 42.5278 18.32C42.5278 16.848 42.3678 15.84 42.0478 15.296C41.7598 14.752 41.2158 14.48 40.4158 14.48C39.6158 14.48 38.7838 14.96 37.9198 15.92C37.0878 16.88 36.4798 17.792 36.0958 18.656C35.7118 19.488 35.5198 19.968 35.5198 20.096H35.4238C34.6238 24.288 34.0318 27.456 33.6478 29.6C34.1918 30.624 35.1678 31.136 36.5758 31.136Z"
        fill="#3ecf8e" />
    <path
        d="M67.0288 18.776L62.9248 32H60.0448L57.3808 22.232L54.7168 32H51.8368L47.7088 18.776H50.4928L53.2528 29.408L56.0608 18.776H58.9168L61.6048 29.36L64.3408 18.776H67.0288ZM70.4654 17.024C69.9694 17.024 69.5534 16.856 69.2174 16.52C68.8814 16.184 68.7134 15.768 68.7134 15.272C68.7134 14.776 68.8814 14.36 69.2174 14.024C69.5534 13.688 69.9694 13.52 70.4654 13.52C70.9454 13.52 71.3534 13.688 71.6894 14.024C72.0254 14.36 72.1934 14.776 72.1934 15.272C72.1934 15.768 72.0254 16.184 71.6894 16.52C71.3534 16.856 70.9454 17.024 70.4654 17.024ZM71.8094 18.776V32H69.0734V18.776H71.8094ZM80.2016 32.216C79.1616 32.216 78.2256 32.032 77.3936 31.664C76.5776 31.28 75.9296 30.768 75.4496 30.128C74.9696 29.472 74.7136 28.744 74.6816 27.944H77.5136C77.5616 28.504 77.8256 28.976 78.3056 29.36C78.8016 29.728 79.4176 29.912 80.1536 29.912C80.9216 29.912 81.5136 29.768 81.9296 29.48C82.3616 29.176 82.5776 28.792 82.5776 28.328C82.5776 27.832 82.3376 27.464 81.8576 27.224C81.3936 26.984 80.6496 26.72 79.6256 26.432C78.6336 26.16 77.8256 25.896 77.2016 25.64C76.5776 25.384 76.0336 24.992 75.5696 24.464C75.1216 23.936 74.8976 23.24 74.8976 22.376C74.8976 21.672 75.1056 21.032 75.5216 20.456C75.9376 19.864 76.5296 19.4 77.2976 19.064C78.0816 18.728 78.9776 18.56 79.9856 18.56C81.4896 18.56 82.6976 18.944 83.6096 19.712C84.5376 20.464 85.0336 21.496 85.0976 22.808H82.3616C82.3136 22.216 82.0736 21.744 81.6416 21.392C81.2096 21.04 80.6256 20.864 79.8896 20.864C79.1696 20.864 78.6176 21 78.2336 21.272C77.8496 21.544 77.6576 21.904 77.6576 22.352C77.6576 22.704 77.7856 23 78.0416 23.24C78.2976 23.48 78.6096 23.672 78.9776 23.816C79.3456 23.944 79.8896 24.112 80.6096 24.32C81.5696 24.576 82.3536 24.84 82.9616 25.112C83.5856 25.368 84.1216 25.752 84.5696 26.264C85.0176 26.776 85.2496 27.456 85.2656 28.304C85.2656 29.056 85.0576 29.728 84.6416 30.32C84.2256 30.912 83.6336 31.376 82.8656 31.712C82.1136 32.048 81.2256 32.216 80.2016 32.216ZM100.342 25.064C100.342 25.56 100.31 26.008 100.246 26.408H90.1419C90.2219 27.464 90.6139 28.312 91.3179 28.952C92.0219 29.592 92.8859 29.912 93.9099 29.912C95.3819 29.912 96.4219 29.296 97.0299 28.064H99.9819C99.5819 29.28 98.8539 30.28 97.7979 31.064C96.7579 31.832 95.4619 32.216 93.9099 32.216C92.6459 32.216 91.5099 31.936 90.5019 31.376C89.5099 30.8 88.7259 30 88.1499 28.976C87.5899 27.936 87.3099 26.736 87.3099 25.376C87.3099 24.016 87.5819 22.824 88.1259 21.8C88.6859 20.76 89.4619 19.96 90.4539 19.4C91.4619 18.84 92.6139 18.56 93.9099 18.56C95.1579 18.56 96.2699 18.832 97.2459 19.376C98.2219 19.92 98.9819 20.688 99.5259 21.68C100.07 22.656 100.342 23.784 100.342 25.064ZM97.4859 24.2C97.4699 23.192 97.1099 22.384 96.4059 21.776C95.7019 21.168 94.8299 20.864 93.7899 20.864C92.8459 20.864 92.0379 21.168 91.3659 21.776C90.6939 22.368 90.2939 23.176 90.1659 24.2H97.4859Z"
        fill="white" />
</svg>